PathFileType	4	(X/Y/Z)	Run_300 02
DataRate	CameraRate	NumFrames	NumMarkers	Units	OrigDataRate	OrigDataStartFrame	OrigNumFrames
100	100	4	42	mm	100	512	128
Frame#	Time	LASI			RASI			LPSI			RTH1			RTH2			RTH3			LTH1			LTH2			LTH3			RTB1			RTB2			RTB3			LTB1			LTB2			LTB3			RCAL			RTOE			RMT5			LCAL			LTOE			LMT5			LACR			RACR			CLAV			C7			RUA1			RUA2			RUA3			RLEL			RMEL			LUA1			LUA2			LUA3			LLEL			RFAsuperior			RFAradius			RFAulna			LFAsuperior			LFAradius			LFAulna			LMEL			RPSI		
		X1	Y1	Z1	X2	Y2	Z2	X3	Y3	Z3	X4	Y4	Z4	X5	Y5	Z5	X6	Y6	Z6	X7	Y7	Z7	X8	Y8	Z8	X9	Y9	Z9	X10	Y10	Z10	X11	Y11	Z11	X12	Y12	Z12	X13	Y13	Z13	X14	Y14	Z14	X15	Y15	Z15	X16	Y16	Z16	X17	Y17	Z17	X18	Y18	Z18	X19	Y19	Z19	X20	Y20	Z20	X21	Y21	Z21	X22	Y22	Z22	X23	Y23	Z23	X24	Y24	Z24	X25	Y25	Z25	X26	Y26	Z26	X27	Y27	Z27	X28	Y28	Z28	X29	Y29	Z29	X30	Y30	Z30	X31	Y31	Z31	X32	Y32	Z32	X33	Y33	Z33	X34	Y34	Z34	X35	Y35	Z35	X36	Y36	Z36	X37	Y37	Z37	X38	Y38	Z38	X39	Y39	Z39	X40	Y40	Z40	X41	Y41	Z41	X42	Y42	Z42	

512	  5.120000	1246.620324	1043.269270	-482.623049	1225.919464	1050.302995	-228.978473	1078.010961	1101.527205	-415.160983	1210.206247	884.290457	-164.776494	1275.945221	798.082781	-184.032835	1246.212853	655.336648	-202.157452	1142.535079	886.989668	-534.374065	1150.099507	745.838587	-491.069858	1034.654708	663.655919	-492.711407	1369.482448	415.258248	-271.495873	1345.295977	303.118224	-231.134890	1387.082200	240.952663	-295.749501	866.341635	429.180731	-414.908454	798.739953	421.934066	-461.685349	741.189681	365.687147	-404.703341	1303.034679	 99.818117	-302.235495	1523.170421	187.030527	-309.356678	1519.314352	149.441520	-237.037020	587.188249	403.536827	-403.840318	646.150591	148.493957	-336.867924	616.452723	177.422550	-428.495653	1269.184741	1585.487485	-488.350265	1214.439764	1553.606546	-159.013368	1280.392118	1504.111072	-288.975972	1175.218106	1594.374788	-337.689255	1102.635700	1473.105407	-95.839527	1043.972263	1496.164881	-127.678640	1016.688190	1432.745629	-97.120573	946.928958	1379.398622	-95.714057	937.279238	1392.239216	-190.096998	1234.264090	1479.798507	-590.970867	1148.963874	1439.931883	-590.877937	1189.066360	1371.459782	-626.811830	1171.602130	1299.422448	-643.980085	1026.568451	1341.902146	-100.521541	1174.965281	1274.854861	-158.608797	1137.135125	1217.246234	-140.372894	1248.425999	1289.974542	-598.737869	1355.753806	1330.155777	-461.859594	1368.307459	1260.045801	-466.687752	1111.946109	1288.569582	-571.856058	1064.365288	1101.605067	-321.728417	
513	  5.130000	1247.088242	1039.846404	-482.651536	1226.557141	1047.516128	-229.170294	1076.906717	1096.904215	-414.695689	1210.681829	878.240138	-165.623370	1272.823057	788.512375	-183.394355	1240.546842	647.950411	-199.075132	1145.303664	882.601601	-534.052791	1154.774113	742.096669	-490.447868	1041.728406	657.597980	-491.904629	1368.501660	410.826991	-269.988311	1346.838954	298.572046	-229.566861	1389.531583	237.246856	-294.295824	868.346450	429.792250	-415.064408	800.262691	427.840949	-461.556156	738.839178	375.504134	-404.991377	1308.777872	 93.505571	-299.893840	1526.811641	186.386377	-308.376499	1524.028267	149.125544	-235.753624	587.780345	424.138676	-404.849224	630.877912	167.685976	-337.553957	601.149181	196.441939	-429.198492	1268.047895	1581.310650	-486.679524	1216.831068	1548.669206	-156.597841	1280.742835	1499.590813	-287.817997	1175.321021	1590.563262	-334.784845	1106.836165	1465.800380	-92.046649	1046.989090	1487.320070	-122.339039	1021.650567	1423.421550	-91.371743	953.299602	1368.378233	-88.869625	941.305316	1381.164847	-182.792348	1229.534848	1477.808598	-588.517842	1144.284996	1438.231070	-587.933549	1182.914358	1369.616158	-625.724900	1164.563585	1297.844782	-642.853969	1033.372918	1331.789345	-95.086191	1181.358741	1266.822841	-156.549596	1144.721619	1208.707670	-137.211431	1241.766647	1285.052412	-599.409583	1352.857550	1318.636380	-463.005075	1363.138982	1248.335590	-470.472915	1105.723404	1287.254335	-569.883626	1063.764399	1096.646783	-320.814770	
514	  5.140000	1247.222152	1035.420626	-482.598554	1226.830763	1043.698982	-229.282869	1075.813026	1091.142418	-414.069069	1211.103584	871.355481	-167.290533	1270.771722	779.475924	-181.664592	1238.230487	640.959785	-196.476090	1148.258287	877.305418	-533.701381	1159.769516	737.491218	-490.801472	1049.277599	650.612948	-491.824853	1366.881358	405.310158	-268.970429	1346.354266	293.354325	-228.201851	1388.439576	232.048636	-292.996660	872.182820	429.577142	-415.718042	803.842077	433.158713	-461.588136	739.021038	384.820500	-405.684409	1308.088691	 88.809026	-297.531470	1525.717028	181.662159	-307.663989	1523.169846	144.577838	-234.817429	591.636746	444.155406	-404.522402	618.917129	188.123117	-339.740471	588.915328	216.478212	-431.335947	1266.780520	1576.062040	-485.156060	1219.268367	1542.369665	-154.311916	1281.053659	1493.865750	-286.626921	1175.383665	1585.537834	-331.849934	1111.480526	1456.996525	-88.060065	1050.392892	1476.856633	-116.491736	1027.262024	1412.235324	-85.414667	960.431373	1355.633167	-81.590751	945.839077	1368.326635	-174.942380	1224.347905	1474.655844	-585.921274	1139.136689	1435.381495	-584.821208	1176.065302	1366.499766	-624.304217	1156.736954	1295.125376	-641.342425	1040.865832	1319.891017	-89.353833	1188.235586	1256.946646	-154.368512	1152.713855	1198.419113	-134.003129	1234.249354	1278.795753	-599.947024	1349.362930	1305.107966	-464.540431	1357.054577	1234.744151	-474.911515	1098.828858	1284.812875	-567.249221	1063.018430	1090.780205	-319.698373	
515	  5.150000	1247.248401	1029.889160	-482.252355	1226.980991	1038.813932	-229.049721	1074.819243	1084.411994	-413.404318	1211.315325	864.142064	-168.838326	1270.180382	771.888244	-179.479432	1239.008512	634.165359	-195.325180	1151.154883	871.265697	-533.292423	1165.292413	731.959849	-491.848037	1057.406756	642.579333	-492.323437	1364.212289	398.166666	-268.568541	1343.332746	286.884336	-227.153535	1383.758187	224.732057	-291.719554	877.718765	428.561125	-416.763647	809.460037	437.808631	-461.837273	741.723676	393.470703	-406.745054	1300.727230	 86.660715	-295.335868	1520.010816	170.932025	-307.009813	1516.245479	133.342474	-234.273408	598.511686	463.218973	-403.037869	610.881911	209.306795	-343.304569	580.428354	237.092631	-434.802401	1265.310499	1569.880594	-483.994261	1221.612127	1534.697533	-152.336942	1281.300056	1487.035281	-285.497626	1175.392022	1579.420618	-328.949933	1116.481136	1446.675808	-83.924067	1054.125640	1464.820552	-110.156624	1033.445416	1399.303688	-79.341851	968.249136	1341.298906	-74.001485	950.866343	1353.788218	-166.689208	1218.794284	1470.398546	-583.223933	1133.628169	1431.388693	-581.664652	1168.708408	1362.140339	-622.528115	1148.289118	1291.315212	-639.471146	1048.901784	1306.345972	-83.417904	1195.544572	1245.329381	-152.189114	1161.102763	1186.532506	-130.793893	1225.970278	1271.278920	-600.239973	1345.187645	1289.778015	-466.468755	1349.981805	1219.544142	-479.649952	1091.802095	1281.283676	-564.163585	1062.304411	1084.175321	-318.780091	
